<svg xmlns="http://www.w3.org/2000/svg" width="173.352" height="86.578" viewBox="0 0 173.352 86.578">
  <path id="_360_1_" data-name="360 (1)" d="M89.085,20.281c-49.4,0-86.585,14.842-86.585,34.34,0,17.025,28.072,30.411,67.992,33.613L63.2,94.054a6.525,6.525,0,0,0,0,10.622,11.512,11.512,0,0,0,13.489,0L98.928,86.924a6.668,6.668,0,0,0,0-10.768l-22.421-17.9a11.232,11.232,0,0,0-13.307,0,6.525,6.525,0,0,0,0,10.622l4.922,3.929C39.321,69.754,21.64,61.169,21.64,54.767c0-7.857,26.431-19.353,67.627-19.353s67.627,11.5,67.627,19.353c0,4.656-10.572,11.641-30.806,15.86-5.1,1.019-8.02,5.093-6.744,9.167s6.38,6.4,11.484,5.384c28.619-5.82,45.024-17.025,45.024-30.411-.182-19.644-37.368-34.486-86.767-34.486Z" transform="translate(-2.5 -20.281)" fill="#b0bec5"/>
</svg>
