<svg version="1.2" xmlns="http://www.w3.org/2000/svg" viewBox="0 0 24 14" width="24" height="14">
	<title>rotate-360-svg</title>
	<style>
		.s0 { fill: #505050 } 
	</style>
	<path id="Layer" class="s0" d="m22 6c0 2.1-2.2 3.8-5.8 4.6q-0.2 0-0.4 0q-0.2-0.1-0.4-0.2q-0.1-0.1-0.2-0.3q-0.2-0.1-0.2-0.3q0-0.2 0-0.4q0-0.2 0.1-0.4q0.2-0.1 0.3-0.3q0.2-0.1 0.4-0.1c2.8-0.6 4.2-1.8 4.2-2.6c0-1.2-3.1-3-8-3c-4.9 0-8 1.8-8 3c0 1 2 2.3 5.4 2.8l-0.1-0.1q-0.3-0.3-0.3-0.7q0-0.4 0.3-0.7q0.3-0.3 0.7-0.3q0.4 0 0.7 0.3l2 2q0 0 0.1 0.1q0 0 0 0q0.1 0.1 0.1 0.1q0 0.1 0 0.1q0.1 0.1 0.1 0.2q0 0.1 0 0.2q0 0.1 0 0.2q0 0.1-0.1 0.2q0 0 0 0.1q0 0-0.1 0.1q0 0 0 0q-0.1 0.1-0.1 0.1l-2 2q-0.1 0.2-0.3 0.2q-0.2 0.1-0.4 0.1q-0.2 0-0.4-0.1q-0.2 0-0.3-0.2q-0.2-0.1-0.2-0.3q-0.1-0.2-0.1-0.4q0-0.2 0.1-0.4q0-0.2 0.2-0.3l0.4-0.4c-4.5-0.5-7.7-2.5-7.7-4.9c0-2.8 4.3-5 10-5c5.7 0 10 2.2 10 5z" />
</svg>