<svg xmlns="http://www.w3.org/2000/svg" width="35.271" height="31" viewBox="0 0 35.271 31">
  <g id="shopping-cart" transform="translate(0 0)">
    <path id="Path_33" data-name="Path 33" d="M11.364,20.667H30.1a1.034,1.034,0,0,0,.994-.749L35.231,5.451a1.033,1.033,0,0,0-.994-1.317H8.981L8.242.809A1.034,1.034,0,0,0,7.233,0h-6.2a1.033,1.033,0,1,0,0,2.067H6.4l3.731,16.789A3.1,3.1,0,0,0,11.367,24.8H30.1a1.033,1.033,0,0,0,0-2.067H11.367a1.033,1.033,0,0,1,0-2.066ZM32.868,6.2,29.325,18.6H12.2L9.44,6.2Zm0,0"/>
    <path id="Path_34" data-name="Path 34" d="M150,363.1a3.1,3.1,0,1,0,3.1-3.1A3.1,3.1,0,0,0,150,363.1Zm3.1-1.033a1.033,1.033,0,1,1-1.033,1.033A1.035,1.035,0,0,1,153.1,362.067Zm0,0" transform="translate(-139.667 -335.2)"/>
    <path id="Path_35" data-name="Path 35" d="M362,363.1a3.1,3.1,0,1,0,3.1-3.1A3.1,3.1,0,0,0,362,363.1Zm3.1-1.033a1.033,1.033,0,1,1-1.033,1.033A1.035,1.035,0,0,1,365.1,362.067Zm0,0" transform="translate(-337.062 -335.2)"/>
  </g>
</svg>
