<svg xmlns="http://www.w3.org/2000/svg" width="31" height="31" viewBox="0 0 31 31">
  <path id="user_2_" data-name="user (2)" d="M26.46,4.54A15.5,15.5,0,0,0,4.539,26.46,15.5,15.5,0,0,0,26.46,4.54ZM6.727,25.993a8.868,8.868,0,0,1,8.773-7.8,8.835,8.835,0,0,1,8.773,7.8,13.655,13.655,0,0,1-17.546,0ZM15.5,16.318a4.708,4.708,0,1,1,4.708-4.708A4.713,4.713,0,0,1,15.5,16.318Zm10.336,8.139a10.678,10.678,0,0,0-6.684-7.444,6.524,6.524,0,1,0-7.3,0,10.668,10.668,0,0,0-6.687,7.441,13.684,13.684,0,1,1,20.674,0Zm0,0" transform="translate(0)"/>
</svg>
