<svg xmlns="http://www.w3.org/2000/svg" width="35.419" height="31.291" viewBox="0 0 35.419 31.291">
  <g id="like" transform="translate(0 -29.836)">
    <g id="Group_108" data-name="Group 108" transform="translate(0 29.836)">
      <path id="Path_32" data-name="Path 32" d="M32.835,32.91a8.921,8.921,0,0,0-14.244,1.025,13.58,13.58,0,0,0-.882,1.43,13.569,13.569,0,0,0-.882-1.43A8.921,8.921,0,0,0,2.584,32.91,10.736,10.736,0,0,0,0,40.041c0,2.947,1.151,5.688,3.621,8.627a80.617,80.617,0,0,0,9.063,8.467c1.371,1.168,2.788,2.376,4.3,3.7l.045.04a1.038,1.038,0,0,0,1.367,0l.045-.04c1.509-1.32,2.926-2.528,4.3-3.7A80.606,80.606,0,0,0,31.8,48.667c2.47-2.938,3.621-5.679,3.621-8.627A10.736,10.736,0,0,0,32.835,32.91ZM21.39,55.555c-1.182,1.007-2.4,2.043-3.68,3.158-1.282-1.115-2.5-2.151-3.68-3.158C6.831,49.421,2.075,45.368,2.075,40.041a8.665,8.665,0,0,1,2.066-5.759,6.927,6.927,0,0,1,5.267-2.371,7,7,0,0,1,5.726,3.223,12.3,12.3,0,0,1,1.588,3.159,1.038,1.038,0,0,0,1.973,0,12.3,12.3,0,0,1,1.588-3.159,6.849,6.849,0,0,1,10.993-.852,8.664,8.664,0,0,1,2.066,5.759C33.344,45.368,28.588,49.421,21.39,55.555Z" transform="translate(0 -29.836)"/>
    </g>
  </g>
</svg>
